<svg width="25" height="24" viewBox="0 0 25 24" fill="none" xmlns="http://www.w3.org/2000/svg">
<path d="M7.5301 0.0841693C6.2533 0.144409 5.38138 0.348169 4.61914 0.647689C3.83026 0.955129 3.16162 1.36769 2.49634 2.03537C1.83106 2.70305 1.42138 3.37217 1.1161 4.16225C0.820659 4.92617 0.620499 5.79881 0.564099 7.07633C0.507699 8.35385 0.495219 8.76449 0.501459 12.0232C0.507699 15.2819 0.522099 15.6904 0.584019 16.9706C0.644979 18.2471 0.848019 19.1188 1.14754 19.8813C1.45546 20.6702 1.86754 21.3386 2.53546 22.0041C3.20338 22.6696 3.87202 23.0783 4.66402 23.3841C5.42722 23.6791 6.3001 23.8802 7.57738 23.9361C8.85466 23.992 9.26578 24.005 12.5235 23.9987C15.7813 23.9925 16.1915 23.9781 17.4714 23.9174C18.7513 23.8566 19.6184 23.6522 20.3811 23.3541C21.17 23.0455 21.8389 22.6341 22.5039 21.9659C23.169 21.2978 23.5784 20.6282 23.8835 19.8376C24.1791 19.0744 24.38 18.2015 24.4355 16.9252C24.4914 15.6443 24.5046 15.2354 24.4983 11.9771C24.4921 8.71889 24.4775 8.31041 24.4167 7.03073C24.356 5.75105 24.1527 4.88201 23.8535 4.11905C23.5451 3.33017 23.1335 2.66225 22.4658 1.99625C21.7981 1.33025 21.128 0.921049 20.3377 0.616729C19.574 0.321289 18.7016 0.119929 17.4243 0.0647293C16.1471 0.00952928 15.7359 -0.00463073 12.477 0.00160927C9.21802 0.00784927 8.81002 0.0217693 7.5301 0.0841693ZM7.67026 21.7773C6.50026 21.7264 5.86498 21.532 5.44162 21.3693C4.88098 21.1533 4.48162 20.8922 4.0597 20.4743C3.63778 20.0565 3.37858 19.6557 3.1597 19.0962C2.9953 18.6729 2.7973 18.0383 2.74258 16.8683C2.68306 15.6038 2.67058 15.2241 2.66362 12.0203C2.65666 8.81657 2.6689 8.43737 2.72434 7.17233C2.77426 6.00329 2.96986 5.36729 3.13234 4.94417C3.34834 4.38281 3.6085 3.98417 4.0273 3.56249C4.4461 3.14081 4.8457 2.88113 5.40562 2.66225C5.8285 2.49713 6.46306 2.30081 7.63258 2.24513C8.8981 2.18513 9.2773 2.17313 12.4806 2.16617C15.6839 2.15921 16.064 2.17121 17.33 2.22689C18.4991 2.27777 19.1353 2.47145 19.5579 2.63489C20.1188 2.85089 20.5179 3.11033 20.9396 3.52985C21.3613 3.94937 21.6212 4.34753 21.8401 4.90865C22.0055 5.33033 22.2018 5.96465 22.257 7.13489C22.3172 8.40041 22.3309 8.77985 22.3367 11.9829C22.3424 15.1859 22.3311 15.5663 22.2757 16.8309C22.2246 18.0009 22.0307 18.6364 21.8677 19.0602C21.6517 19.6206 21.3913 20.0202 20.9723 20.4417C20.5532 20.8631 20.1541 21.1228 19.5939 21.3417C19.1715 21.5066 18.5363 21.7034 17.3677 21.7591C16.1022 21.8186 15.723 21.831 12.5185 21.838C9.31402 21.845 8.93602 21.832 7.6705 21.7773M17.4529 5.58665C17.4534 5.87147 17.5383 6.14976 17.6969 6.38631C17.8556 6.62287 18.0808 6.80706 18.3442 6.9156C18.6075 7.02413 18.8971 7.05214 19.1764 6.99607C19.4556 6.94 19.712 6.80238 19.913 6.60061C20.114 6.39884 20.2507 6.14198 20.3058 5.86253C20.3608 5.58307 20.3317 5.29357 20.2222 5.03063C20.1127 4.7677 19.9277 4.54314 19.6906 4.38537C19.4534 4.22759 19.1748 4.14368 18.89 4.14425C18.5082 4.14501 18.1423 4.29739 17.8728 4.56788C17.6033 4.83837 17.4523 5.20482 17.4529 5.58665ZM6.3385 12.0122C6.34522 15.4154 9.10906 18.1679 12.5115 18.1614C15.914 18.155 18.6685 15.3914 18.662 11.9882C18.6555 8.58497 15.891 5.83169 12.488 5.83841C9.08506 5.84513 6.33202 8.60945 6.3385 12.0122ZM8.49994 12.0078C8.49837 11.2167 8.73144 10.4429 9.16968 9.7842C9.60791 9.12552 10.2316 8.61158 10.9619 8.30738C11.6923 8.00318 12.4964 7.92237 13.2726 8.07518C14.0489 8.22799 14.7624 8.60755 15.3229 9.16586C15.8834 9.72417 16.2658 10.4362 16.4217 11.2118C16.5776 11.9874 16.4999 12.7919 16.1986 13.5234C15.8973 14.2549 15.3859 14.8806 14.7289 15.3215C14.072 15.7623 13.2991 15.9984 12.5079 16C11.9826 16.0011 11.4622 15.8987 10.9765 15.6987C10.4908 15.4986 10.0492 15.2049 9.67699 14.8342C9.3048 14.4634 9.00929 14.023 8.80733 13.5381C8.60537 13.0531 8.50091 12.5332 8.49994 12.0078Z" fill="#003C46"/>
</svg>
