<svg width="66" height="87" viewBox="0 0 66 87" fill="none" xmlns="http://www.w3.org/2000/svg">
<path d="M55.8499 9.47C49.9999 3.62 41.9199 0 32.9899 0C15.1399 0 0.669922 14.47 0.669922 32.32C0.669922 41.25 4.28993 49.33 10.1499 55.18L17.5399 47.79C13.5799 43.84 11.1199 38.37 11.1199 32.32C11.1199 20.24 20.9099 10.44 32.9999 10.44C39.0499 10.44 44.5199 12.89 48.4699 16.85C52.4299 20.81 54.8799 26.28 54.8799 32.31C54.8799 42.6 47.7699 51.23 38.1899 53.56V27.13L27.8199 37.51V86.51H38.1899V64.22C53.5799 61.74 65.3299 48.39 65.3299 32.31C65.3299 23.39 61.7099 15.3 55.8599 9.45999L55.8499 9.47Z" fill="#53CFBA"/>
</svg>
